<?xml version="1.0" encoding="UTF-8" standalone="no"?>
<!-- Generator: Adobe Illustrator 23.0.4, SVG Export Plug-In . SVG Version: 6.00 Build 0)  -->
<svg id="Layer_1" style="enable-background:new 0 0 85.12 92.46" xmlns="http://www.w3.org/2000/svg" xml:space="preserve" height="250px" viewBox="0 0 85.12 92.46" width="250px" version="1.1" y="0px" x="0px" xmlns:xlink="http://www.w3.org/1999/xlink">
<style type="text/css">
	.st0{fill:url(#SVGID_1_);}
</style>
<linearGradient id="SVGID_1_" y2="28.783" gradientUnits="userSpaceOnUse" x2="42.562" y1="113.26" x1="42.562">
	<stop stop-color="#FFF200" offset="0"/>
	<stop stop-color="#F15A29" offset="1"/>
</linearGradient>
<path class="st0" d="m85.01 40.8c-0.14-1.55-0.41-3.35-0.93-5.32-0.51-1.97-1.28-4.13-2.39-6.37-1.12-2.24-2.57-4.57-4.47-6.82-0.74-0.88-1.54-1.76-2.42-2.6 1.3-5.17-1.59-9.65-1.59-9.65-4.98-0.31-8.14 1.54-9.31 2.39-0.2-0.08-0.39-0.17-0.59-0.25-0.85-0.34-1.72-0.66-2.61-0.95-0.89-0.28-1.81-0.54-2.74-0.76-0.94-0.22-1.89-0.4-2.86-0.55-0.17-0.03-0.34-0.05-0.51-0.07-2.18-6.95-8.41-9.85-8.41-9.85-6.95 4.41-8.27 10.57-8.27 10.57s-0.03 0.14-0.07 0.36c-0.38 0.11-0.77 0.22-1.15 0.34-0.53 0.16-1.06 0.36-1.59 0.55-0.53 0.21-1.06 0.41-1.58 0.64-1.05 0.45-2.09 0.96-3.1 1.53-0.99 0.55-1.95 1.16-2.9 1.82-0.14-0.06-0.24-0.11-0.24-0.11-9.62-3.68-18.17 0.75-18.17 0.75-0.78 10.24 3.84 16.68 4.76 17.86-0.23 0.63-0.44 1.27-0.64 1.92-0.71 2.32-1.24 4.7-1.57 7.16-0.05 0.35-0.09 0.71-0.13 1.07-8.9 4.38-11.53 13.38-11.53 13.38 7.42 8.53 16.07 9.06 16.07 9.06 0.01-0.01 0.02-0.01 0.02-0.02 1.1 1.96 2.37 3.83 3.8 5.57 0.6 0.73 1.23 1.43 1.88 2.11-2.71 7.74 0.38 14.18 0.38 14.18 8.26 0.31 13.69-3.61 14.83-4.52 0.82 0.28 1.66 0.53 2.5 0.74 2.54 0.65 5.14 1.04 7.74 1.15 0.65 0.03 1.3 0.04 1.95 0.04h0.31l0.21-0.01 0.41-0.01 0.4-0.02 0.01 0.01c3.89 5.55 10.74 6.34 10.74 6.34 4.87-5.13 5.15-10.22 5.15-11.33v-0.07-0.15s0 0 0 0c0-0.08-0.01-0.15-0.01-0.23 1.02-0.72 2-1.49 2.92-2.31 1.95-1.76 3.65-3.77 5.06-5.93 0.13-0.2 0.26-0.41 0.39-0.62 5.51 0.32 9.39-3.41 9.39-3.41-0.91-5.74-4.18-8.54-4.87-9.07 0 0-0.03-0.02-0.07-0.05s-0.06-0.05-0.06-0.05c-0.04-0.02-0.08-0.05-0.12-0.08 0.03-0.35 0.06-0.69 0.08-1.04 0.04-0.62 0.06-1.24 0.06-1.85v-0.46-0.23-0.12-0.16l-0.02-0.38-0.03-0.52c-0.01-0.18-0.02-0.34-0.04-0.5-0.01-0.16-0.03-0.32-0.05-0.48l-0.06-0.48-0.07-0.47c-0.09-0.63-0.21-1.26-0.36-1.88-0.58-2.47-1.54-4.82-2.82-6.93s-2.86-3.98-4.65-5.56-3.79-2.85-5.9-3.79c-2.1-0.95-4.31-1.55-6.51-1.83-1.1-0.14-2.2-0.2-3.28-0.19l-0.41 0.01h-0.1-0.14l-0.17 0.01-0.4 0.03c-0.15 0.01-0.31 0.02-0.45 0.04-0.56 0.05-1.11 0.13-1.66 0.23-2.18 0.41-4.24 1.2-6.06 2.28-1.82 1.09-3.39 2.45-4.68 3.98-1.28 1.54-2.28 3.24-2.96 5-0.69 1.76-1.07 3.58-1.18 5.35-0.03 0.44-0.04 0.88-0.03 1.32 0 0.11 0 0.22 0.01 0.33l0.01 0.35c0.02 0.21 0.03 0.42 0.05 0.63 0.09 0.9 0.25 1.75 0.49 2.58 0.48 1.66 1.25 3.15 2.2 4.43s2.08 2.33 3.28 3.15 2.49 1.41 3.76 1.79 2.54 0.54 3.74 0.53c0.15 0 0.3 0 0.44-0.01 0.08 0 0.16-0.01 0.24-0.01s0.16-0.01 0.24-0.01c0.13-0.01 0.25-0.03 0.38-0.04 0.03 0 0.07-0.01 0.11-0.01l0.12-0.02c0.08-0.01 0.15-0.02 0.23-0.03 0.16-0.02 0.29-0.05 0.43-0.08s0.28-0.05 0.42-0.09c0.27-0.06 0.54-0.14 0.8-0.22 0.52-0.17 1.01-0.38 1.46-0.61s0.87-0.5 1.26-0.77c0.11-0.08 0.22-0.16 0.33-0.25 0.42-0.33 0.48-0.94 0.15-1.35-0.29-0.36-0.79-0.45-1.19-0.23-0.1 0.05-0.2 0.11-0.3 0.16-0.35 0.17-0.71 0.32-1.09 0.45-0.39 0.12-0.79 0.22-1.2 0.29-0.21 0.03-0.42 0.06-0.63 0.08-0.11 0.01-0.21 0.02-0.32 0.02s-0.22 0.01-0.32 0.01-0.21 0-0.31-0.01c-0.13-0.01-0.26-0.01-0.39-0.02h-0.01-0.04l-0.09 0.02c-0.06-0.01-0.12-0.01-0.17-0.02-0.12-0.01-0.23-0.03-0.35-0.04-0.93-0.13-1.88-0.4-2.79-0.82-0.91-0.41-1.79-0.98-2.57-1.69-0.79-0.71-1.48-1.56-2.01-2.52-0.54-0.96-0.92-2.03-1.09-3.16-0.09-0.56-0.13-1.14-0.11-1.71 0.01-0.16 0.01-0.31 0.02-0.47v-0.03-0.06l0.01-0.12c0.01-0.08 0.01-0.15 0.02-0.23 0.03-0.31 0.08-0.62 0.13-0.92 0.43-2.45 1.65-4.83 3.55-6.65 0.47-0.45 0.98-0.87 1.53-1.25 0.55-0.37 1.12-0.7 1.73-0.98 0.6-0.28 1.23-0.5 1.88-0.68 0.65-0.17 1.31-0.29 1.98-0.35 0.34-0.03 0.67-0.04 1.01-0.04h0.23l0.27 0.01 0.17 0.01h0.03 0.07l0.27 0.02c0.73 0.06 1.46 0.16 2.17 0.32 1.43 0.32 2.83 0.85 4.13 1.57 2.6 1.44 4.81 3.69 6.17 6.4 0.69 1.35 1.16 2.81 1.4 4.31 0.06 0.38 0.1 0.76 0.13 1.14l0.02 0.29 0.01 0.29c0.01 0.1 0.01 0.19 0.01 0.29 0 0.09 0.01 0.2 0 0.27v0.25l-0.01 0.28c-0.01 0.19-0.02 0.49-0.03 0.67-0.03 0.42-0.07 0.83-0.12 1.24s-0.12 0.82-0.19 1.22c-0.08 0.4-0.17 0.81-0.27 1.21-0.2 0.8-0.46 1.59-0.76 2.36-0.61 1.54-1.42 3-2.4 4.36-1.96 2.7-4.64 4.9-7.69 6.29-1.52 0.69-3.13 1.19-4.78 1.47-0.82 0.14-1.66 0.22-2.5 0.25l-0.15 0.01h-0.13-0.27-0.41-0.21-0.01-0.08c-0.45-0.01-0.9-0.03-1.34-0.07-1.79-0.13-3.55-0.45-5.27-0.95-1.71-0.49-3.38-1.16-4.95-2-3.14-1.68-5.95-3.98-8.15-6.76-1.11-1.38-2.07-2.87-2.87-4.43s-1.42-3.2-1.89-4.88c-0.46-1.68-0.75-3.39-0.86-5.12l-0.02-0.32-0.01-0.08v-0.07-0.14l-0.01-0.28v-0.07-0.1-0.2l-0.01-0.4v-0.08-0.03-0.16c0-0.21 0.01-0.42 0.01-0.63 0.03-0.85 0.1-1.73 0.21-2.61s0.26-1.76 0.44-2.63 0.39-1.74 0.64-2.59c0.49-1.71 1.1-3.36 1.82-4.92 1.44-3.12 3.34-5.88 5.61-8.09 0.57-0.55 1.16-1.08 1.77-1.57s1.25-0.95 1.9-1.37c0.65-0.43 1.32-0.82 2.02-1.18 0.34-0.19 0.7-0.35 1.05-0.52 0.18-0.08 0.36-0.16 0.53-0.24 0.18-0.08 0.36-0.16 0.54-0.23 0.72-0.3 1.46-0.56 2.21-0.8 0.19-0.06 0.38-0.11 0.56-0.17 0.19-0.06 0.38-0.1 0.57-0.16 0.38-0.11 0.76-0.2 1.14-0.29 0.19-0.05 0.39-0.08 0.58-0.13 0.19-0.04 0.38-0.08 0.58-0.12 0.19-0.04 0.39-0.07 0.58-0.11l0.29-0.05 0.29-0.04c0.2-0.03 0.39-0.06 0.59-0.09 0.22-0.04 0.44-0.05 0.66-0.09 0.18-0.02 0.48-0.06 0.65-0.08 0.14-0.01 0.28-0.03 0.41-0.04l0.28-0.03 0.14-0.01 0.16-0.01c0.22-0.01 0.44-0.03 0.66-0.04l0.33-0.02h0.02 0.07l0.14-0.01c0.19-0.01 0.38-0.02 0.56-0.03 0.75-0.02 1.5-0.02 2.24 0 1.48 0.06 2.93 0.22 4.34 0.48 2.82 0.53 5.49 1.43 7.89 2.62 2.41 1.18 4.57 2.63 6.44 4.2 0.12 0.1 0.23 0.2 0.35 0.3 0.11 0.1 0.23 0.2 0.34 0.3 0.23 0.2 0.44 0.41 0.66 0.61s0.43 0.41 0.64 0.62c0.2 0.21 0.41 0.41 0.61 0.63 0.8 0.84 1.53 1.69 2.19 2.55 1.33 1.71 2.39 3.44 3.24 5.07 0.05 0.1 0.11 0.2 0.16 0.3l0.15 0.3c0.1 0.2 0.2 0.4 0.29 0.6s0.19 0.39 0.27 0.59c0.09 0.2 0.17 0.39 0.25 0.58 0.32 0.76 0.61 1.49 0.84 2.18 0.39 1.11 0.67 2.11 0.89 2.98 0.09 0.35 0.42 0.58 0.78 0.55 0.37-0.03 0.66-0.34 0.66-0.71 0.04-0.95 0.01-2.05-0.09-3.3z"/>
</svg>
